<?xml version="1.0" encoding="UTF-8" standalone="no"?>
<svg
   width="48"
   height="48"
   version="1.1"
   id="svg31"
   sodipodi:docname="libreoffice-math.svg"
   inkscape:version="1.1.2 (0a00cf5339, 2022-02-04)"
   xmlns:inkscape="http://www.inkscape.org/namespaces/inkscape"
   xmlns:sodipodi="http://sodipodi.sourceforge.net/DTD/sodipodi-0.dtd"
   xmlns="http://www.w3.org/2000/svg"
   xmlns:svg="http://www.w3.org/2000/svg">
  <sodipodi:namedview
     id="namedview33"
     pagecolor="#ffffff"
     bordercolor="#666666"
     borderopacity="1.0"
     inkscape:pageshadow="2"
     inkscape:pageopacity="0.0"
     inkscape:pagecheckerboard="0"
     showgrid="true"
     inkscape:zoom="36.651701"
     inkscape:cx="32.98619"
     inkscape:cy="6.2343627"
     inkscape:window-width="1920"
     inkscape:window-height="1015"
     inkscape:window-x="0"
     inkscape:window-y="0"
     inkscape:window-maximized="1"
     inkscape:current-layer="svg31">
    <inkscape:grid
       type="xygrid"
       id="grid850" />
  </sodipodi:namedview>
  <defs
     id="defs17">
    <linearGradient
       id="a"
       y1="785.71"
       y2="727.71"
       gradientUnits="userSpaceOnUse"
       x2="0"
       gradientTransform="matrix(.72727 0 0 .68966.727 1.931)">
      <stop
         stop-color="#6c7a89"
         id="stop2" />
      <stop
         offset="1"
         stop-color="#768492"
         id="stop4" />
    </linearGradient>
    <linearGradient
       id="b"
       y1="1052.3"
       y2="1039.3"
       gradientUnits="userSpaceOnUse"
       x2="0"
       gradientTransform="translate(-31.11-1020.3)">
      <stop
         stop-color="#a0aab4"
         id="stop7" />
      <stop
         offset="1"
         stop-color="#d8dce0"
         id="stop9" />
    </linearGradient>
    <linearGradient
       id="c"
       y1="16"
       x1="16"
       y2="32"
       x2="32"
       gradientUnits="userSpaceOnUse">
      <stop
         stop-color="#383e51"
         id="stop12" />
      <stop
         offset="1"
         stop-color="#655c6f"
         stop-opacity="0"
         id="stop14" />
    </linearGradient>
  </defs>
  <g
     transform="translate(-384.57,-499.8)"
     id="g29">
    <path
       fill="url(#a)"
       d="m 396.57,503.8 c -2,0 -4,2 -4,4 v 28 c 0,4.432 0.004,8 0.01,8 h 31.98 c 0.006,0 0.01,-3.568 0.01,-8 v -20 l -12,-12 z"
       id="path19"
       sodipodi:nodetypes="ccssssccc" />
    <rect
       width="32"
       x="392.57001"
       y="542.79999"
       fill="#2e3132"
       height="1"
       fill-opacity="0.294"
       id="rect21" />
    <path
       fill="#59646f"
       d="m 424.56,513.79 c 0.006,-0.009 0.01,-5.99 0.01,-5.99 0,-2 -2,-4 -4,-4 h -5.99 v 0.01 z"
       id="path23"
       sodipodi:nodetypes="cccccc" />
    <path
       opacity="0.2"
       fill="url(#c)"
       fill-rule="evenodd"
       d="m 32,19 -1,2 v -1 h -7 l -4,7 h -1 l -1,-2 h -2 l 5,5 h -5 l 14,14 h 9.99 C 39.996,44 40,40.432 40,36 v -9 z"
       transform="translate(384.57,499.8)"
       id="path25" />
    <path
       fill="url(#b)"
       d="m 32,19.01 -8,0.004 -4.441,7.691 -1.555,-2.695 h -2 v 1 h 1.428 l 2.133,3.693 5.02,-8.693 h 6.42 v 1 h 1 z m -5,3 c -1.662,0 -3,1.338 -3,3 0,1.662 1.338,3 3,3 0.773,0 1.469,-0.298 2,-0.775 v 0.775 h 1 v -6 h -1 v 0.775 C 28.469,22.308 27.773,22.01 27,22.01 m 0,1 c 1.108,0 2,0.892 2,2 0,1.108 -0.892,2 -2,2 -1.108,0 -2,-0.892 -2,-2 0,-1.108 0.892,-2 2,-2 M 16.01,29 C 16.004,29 16,29.223 16,29.5 16,29.777 16.004,30 16.01,30 H 31.99 C 31.996,30 32,29.777 32,29.5 32,29.223 31.996,29 31.99,29 Z m 7,2 C 23.004,31 23,31.223 23,31.5 c 0,0.277 0.004,0.5 0.01,0.5 h 1.98 C 24.996,32 25,31.777 25,31.5 25,31.223 24.996,31 24.99,31 Z"
       transform="translate(384.57,499.8)"
       id="path27" />
  </g>
</svg>
