<?xml version="1.0" encoding="UTF-8" standalone="no"?>
<svg
   width="48"
   height="48"
   version="1.1"
   id="svg31"
   sodipodi:docname="libreoffice-main.svg"
   inkscape:version="1.1.2 (0a00cf5339, 2022-02-04)"
   xmlns:inkscape="http://www.inkscape.org/namespaces/inkscape"
   xmlns:sodipodi="http://sodipodi.sourceforge.net/DTD/sodipodi-0.dtd"
   xmlns="http://www.w3.org/2000/svg"
   xmlns:svg="http://www.w3.org/2000/svg">
  <sodipodi:namedview
     id="namedview33"
     pagecolor="#ffffff"
     bordercolor="#666666"
     borderopacity="1.0"
     inkscape:pageshadow="2"
     inkscape:pageopacity="0.0"
     inkscape:pagecheckerboard="0"
     showgrid="true"
     inkscape:zoom="12.958333"
     inkscape:cx="24"
     inkscape:cy="23.961415"
     inkscape:window-width="1920"
     inkscape:window-height="1015"
     inkscape:window-x="0"
     inkscape:window-y="0"
     inkscape:window-maximized="1"
     inkscape:current-layer="svg31">
    <inkscape:grid
       type="xygrid"
       id="grid850" />
  </sodipodi:namedview>
  <defs
     id="defs17">
    <linearGradient
       id="a"
       y1="785.71"
       y2="727.71"
       gradientUnits="userSpaceOnUse"
       x2="0"
       gradientTransform="matrix(.72727 0 0 .68966.727 1.931)">
      <stop
         stop-color="#2a2c2f"
         id="stop2" />
      <stop
         offset="1"
         stop-color="#424649"
         id="stop4" />
    </linearGradient>
    <linearGradient
       id="b"
       y1="531.8"
       y2="515.8"
       x2="0"
       gradientUnits="userSpaceOnUse">
      <stop
         stop-color="#a5a9af"
         id="stop7" />
      <stop
         offset="1"
         stop-color="#dadcde"
         id="stop9" />
    </linearGradient>
    <linearGradient
       id="c"
       y1="515.8"
       x1="400.57"
       y2="531.8"
       x2="416.57"
       gradientUnits="userSpaceOnUse"
       gradientTransform="translate(-384.57-499.8)">
      <stop
         stop-color="#383e51"
         id="stop12" />
      <stop
         offset="1"
         stop-color="#655c6f"
         stop-opacity="0"
         id="stop14" />
    </linearGradient>
  </defs>
  <g
     transform="translate(-384.57,-499.8)"
     id="g29">
    <path
       fill="url(#a)"
       d="m 396.57,503.8 c -2,0 -4,2 -4,4 v 28 c 0,4.432 0.004,8 0.01,8 h 31.98 c 0.006,0 0.01,-3.568 0.01,-8 v -20 l -12,-12 z"
       id="path19"
       sodipodi:nodetypes="ccssssccc" />
    <rect
       width="32"
       x="392.57001"
       y="542.79999"
       fill="#2e3132"
       height="1"
       fill-opacity="0.294"
       id="rect21" />
    <path
       fill="#212323"
       d="m 424.56,513.79 c 0.006,-0.009 0.0102,-5.8786 0.0102,-5.8786 C 424.57,505.8 422.57,503.8 420.57,503.8 h -5.99 v 0.01 z"
       id="path23"
       sodipodi:nodetypes="cccccc" />
    <path
       opacity="0.2"
       fill="url(#c)"
       fill-rule="evenodd"
       d="M 17,16 V 32 L 29,44 H 39.99 C 39.996,44 40,40.432 40,36 V 25 l -9,-9 z"
       transform="translate(384.57,499.8)"
       id="path25" />
    <path
       fill="url(#b)"
       d="m 401.57,515.8 v 16 h 10 v -0.01 l 0.008,0.01 3.992,-3.992 v -12.01 h -13 z m 1,1 h 12 v 10 h -4 v 4 h -8 z"
       id="path27" />
  </g>
</svg>
