<?xml version="1.0" encoding="UTF-8" standalone="no"?>
<svg
   width="48"
   height="48"
   version="1.1"
   id="svg31"
   sodipodi:docname="libreoffice-draw.svg"
   inkscape:version="1.1.2 (0a00cf5339, 2022-02-04)"
   xmlns:inkscape="http://www.inkscape.org/namespaces/inkscape"
   xmlns:sodipodi="http://sodipodi.sourceforge.net/DTD/sodipodi-0.dtd"
   xmlns="http://www.w3.org/2000/svg"
   xmlns:svg="http://www.w3.org/2000/svg">
  <sodipodi:namedview
     id="namedview33"
     pagecolor="#ffffff"
     bordercolor="#666666"
     borderopacity="1.0"
     inkscape:pageshadow="2"
     inkscape:pageopacity="0.0"
     inkscape:pagecheckerboard="0"
     showgrid="true"
     inkscape:zoom="12.958333"
     inkscape:cx="24"
     inkscape:cy="23.961415"
     inkscape:window-width="1920"
     inkscape:window-height="1015"
     inkscape:window-x="0"
     inkscape:window-y="0"
     inkscape:window-maximized="1"
     inkscape:current-layer="svg31">
    <inkscape:grid
       type="xygrid"
       id="grid850" />
  </sodipodi:namedview>
  <defs
     id="defs17">
    <linearGradient
       id="a"
       y1="785.71"
       y2="727.71"
       gradientUnits="userSpaceOnUse"
       x2="0"
       gradientTransform="matrix(.72727 0 0 .68966.727 1.931)">
      <stop
         stop-color="#f39c12"
         id="stop2" />
      <stop
         offset="1"
         stop-color="#f5ab35"
         id="stop4" />
    </linearGradient>
    <linearGradient
       id="b"
       y1="531.8"
       y2="515.8"
       x2="0"
       gradientUnits="userSpaceOnUse">
      <stop
         stop-color="#f7bb5d"
         id="stop7" />
      <stop
         offset="1"
         stop-color="#fce3bc"
         id="stop9" />
    </linearGradient>
    <linearGradient
       id="c"
       y1="16"
       x1="16"
       y2="32"
       x2="32"
       gradientUnits="userSpaceOnUse">
      <stop
         stop-color="#383e51"
         id="stop12" />
      <stop
         offset="1"
         stop-color="#655c6f"
         stop-opacity="0"
         id="stop14" />
    </linearGradient>
  </defs>
  <g
     transform="translate(-384.57,-499.8)"
     id="g29">
    <path
       fill="url(#a)"
       d="m 396.57,503.8 c -2,0 -3.94573,2 -3.94976,4.22607 L 392.57,535.8 c -0.008,4.43199 0.004,8 0.01,8 h 31.98 c 0.006,0 0.01,-3.568 0.01,-8 v -20 l -12,-12 -15.85276,0 z"
       id="path19"
       sodipodi:nodetypes="cssssscccc" />
    <rect
       width="32"
       x="392.57001"
       y="542.79999"
       fill="#2e3132"
       height="1"
       fill-opacity="0.294"
       id="rect21" />
    <path
       fill="#b97c1b"
       d="m 424.56,513.79 c 0.006,-0.009 -0.0289,-5.90912 -0.0289,-5.90912 C 424.57,505.8 422.57,503.8 420.63406,503.81533 L 414.58,503.8 v 0.01 z"
       id="path23"
       sodipodi:nodetypes="cccccc" />
    <path
       opacity="0.2"
       fill="url(#c)"
       fill-rule="evenodd"
       d="m 32,16 -5.525,5.525 -4.5,-4.5 -4.949,4.949 4.162,4.162 -4.188,5.863 12,12 h 10.99 c 0.006,0 0.01,-3.568 0.01,-8 v -12 z"
       transform="translate(384.57,499.8)"
       id="path25" />
    <path
       stroke-opacity="0.55"
       fill="url(#b)"
       stroke-width="2.8"
       d="m 404.07,515.8 c -1.939,0 -3.5,1.561 -3.5,3.5 0,1.939 1.561,3.5 3.5,3.5 1.939,0 3.5,-1.561 3.5,-3.5 0,-1.939 -1.561,-3.5 -3.5,-3.5 m 5.5,0 v 7 h 7 v -7 z m -8,9 v 7 h 5 v -7 z m 11,0 -4,7 h 8 z"
       id="path27" />
  </g>
</svg>
