<?xml version="1.0" encoding="UTF-8" standalone="no"?>
<svg
   width="48"
   height="48"
   version="1.1"
   id="svg31"
   sodipodi:docname="libreoffice-calc.svg"
   inkscape:version="1.1.2 (0a00cf5339, 2022-02-04)"
   xmlns:inkscape="http://www.inkscape.org/namespaces/inkscape"
   xmlns:sodipodi="http://sodipodi.sourceforge.net/DTD/sodipodi-0.dtd"
   xmlns="http://www.w3.org/2000/svg"
   xmlns:svg="http://www.w3.org/2000/svg"
   xmlns:rdf="http://www.w3.org/1999/02/22-rdf-syntax-ns#"
   xmlns:cc="http://creativecommons.org/ns#"
   xmlns:dc="http://purl.org/dc/elements/1.1/">
  <metadata
     id="metadata35">
    <rdf:RDF>
      <cc:Work
         rdf:about="">
        <dc:format>image/svg+xml</dc:format>
        <dc:type
           rdf:resource="http://purl.org/dc/dcmitype/StillImage" />
      </cc:Work>
    </rdf:RDF>
  </metadata>
  <sodipodi:namedview
     pagecolor="#ffffff"
     bordercolor="#666666"
     borderopacity="1"
     objecttolerance="10"
     gridtolerance="10"
     guidetolerance="10"
     inkscape:pageopacity="0"
     inkscape:pageshadow="2"
     inkscape:window-width="1920"
     inkscape:window-height="1015"
     id="namedview33"
     showgrid="true"
     inkscape:zoom="13.083333"
     inkscape:cx="9.5541404"
     inkscape:cy="23.961784"
     inkscape:window-x="0"
     inkscape:window-y="0"
     inkscape:window-maximized="1"
     inkscape:current-layer="svg31"
     inkscape:pagecheckerboard="0">
    <inkscape:grid
       type="xygrid"
       id="grid860" />
  </sodipodi:namedview>
  <defs
     id="defs17">
    <linearGradient
       id="a"
       y1="517.8"
       y2="533.8"
       x1="404.98"
       x2="420.98"
       gradientUnits="userSpaceOnUse"
       gradientTransform="translate(-388.98-501.8)">
      <stop
         stop-color="#383e51"
         id="stop2" />
      <stop
         offset="1"
         stop-color="#655c6f"
         stop-opacity="0"
         id="stop4" />
    </linearGradient>
    <linearGradient
       id="b"
       y1="785.71"
       y2="727.71"
       gradientUnits="userSpaceOnUse"
       x2="0"
       gradientTransform="matrix(.72727 0 0 .68966.727 1.931)">
      <stop
         stop-color="#26c281"
         id="stop7" />
      <stop
         offset="1"
         stop-color="#3fc380"
         id="stop9" />
    </linearGradient>
    <linearGradient
       id="c"
       y1="531.8"
       y2="515.8"
       x2="0"
       gradientUnits="userSpaceOnUse">
      <stop
         stop-color="#70e4b3"
         id="stop12" />
      <stop
         offset="1"
         stop-color="#c8f0dc"
         id="stop14" />
    </linearGradient>
  </defs>
  <g
     transform="translate(-384.57,-499.8)"
     id="g29">
    <path
       fill="url(#b)"
       d="m 396.43116,503.76922 c -1.86116,-0.004 -3.80938,2.03078 -3.81275,3.98183 L 392.57,535.8 c -0.008,4.43199 0.004,8 0.01,8 h 31.98 c 0.006,0 0.01,-3.568 0.01,-8 v -20 l -12,-12 z"
       id="path19"
       sodipodi:nodetypes="ssssssccs" />
    <rect
       width="32"
       x="392.57001"
       y="542.79999"
       fill="#2e3132"
       height="1"
       fill-opacity="0.294"
       id="rect21" />
    <path
       opacity="0.2"
       fill="url(#a)"
       fill-rule="evenodd"
       d="M 16,16 V 32 L 27,44 H 40 V 24 l -8,-8 z"
       transform="translate(384.57,499.8)"
       id="path23" />
    <path
       fill="url(#c)"
       color="#000000"
       d="m 400.57,515.8 v 16 h 16 v -16 z m 1,1 h 14 v 2 h -14 z m 0,3 h 3 v 2 h -3 z m 4,0 h 6 v 2 h -6 z m 7,0 h 3 v 2 h -3 z m -11,3 h 3 v 2 h -3 z m 4,0 h 6 v 2 h -6 z m 7,0 h 3 v 2 h -3 z m -11,3 h 3 v 2 h -3 z m 4,0 h 6 v 2 h -6 z m 7,0 h 3 v 2 h -3 z m -11,3 h 3 v 2 h -3 z m 4,0 h 6 v 2 h -6 z m 7,0 h 3 v 2 h -3 z"
       id="path25" />
    <path
       fill="#289769"
       d="m 424.56,513.79 c 0.006,-0.009 0.0958,-6.09707 0.0958,-6.09707 C 424.57,505.8 422.57,503.82675 420.52711,503.81991 L 414.58,503.8 v 0.01 z"
       id="path27"
       sodipodi:nodetypes="cssccc" />
  </g>
</svg>
