<?xml version="1.0" encoding="UTF-8" standalone="no"?>
<svg
   width="48"
   height="48"
   version="1.1"
   id="svg31"
   sodipodi:docname="libreoffice-writer.svg"
   inkscape:version="1.1.2 (0a00cf5339, 2022-02-04)"
   xmlns:inkscape="http://www.inkscape.org/namespaces/inkscape"
   xmlns:sodipodi="http://sodipodi.sourceforge.net/DTD/sodipodi-0.dtd"
   xmlns="http://www.w3.org/2000/svg"
   xmlns:svg="http://www.w3.org/2000/svg">
  <sodipodi:namedview
     id="namedview33"
     pagecolor="#ffffff"
     bordercolor="#666666"
     borderopacity="1.0"
     inkscape:pageshadow="2"
     inkscape:pageopacity="0.0"
     inkscape:pagecheckerboard="0"
     showgrid="true"
     inkscape:zoom="9.1629253"
     inkscape:cx="4.4745536"
     inkscape:cy="26.574483"
     inkscape:window-width="1920"
     inkscape:window-height="1015"
     inkscape:window-x="0"
     inkscape:window-y="0"
     inkscape:window-maximized="1"
     inkscape:current-layer="svg31">
    <inkscape:grid
       type="xygrid"
       id="grid850" />
  </sodipodi:namedview>
  <defs
     id="defs17">
    <linearGradient
       id="a"
       y1="785.71"
       y2="727.71"
       gradientUnits="userSpaceOnUse"
       x2="0"
       gradientTransform="matrix(.72727 0 0 .68966.727 1.931)">
      <stop
         stop-color="#22a7f0"
         id="stop2" />
      <stop
         offset="1"
         stop-color="#19b5fe"
         id="stop4" />
    </linearGradient>
    <linearGradient
       id="b"
       y1="20"
       y2="4"
       x2="0"
       gradientUnits="userSpaceOnUse">
      <stop
         stop-color="#60c0f4"
         id="stop7" />
      <stop
         offset="1"
         stop-color="#b9e9ff"
         id="stop9" />
    </linearGradient>
    <linearGradient
       id="c"
       y1="16"
       x1="16"
       y2="32"
       x2="32"
       gradientUnits="userSpaceOnUse">
      <stop
         stop-color="#383e51"
         id="stop12" />
      <stop
         offset="1"
         stop-color="#655c6f"
         stop-opacity="0"
         id="stop14" />
    </linearGradient>
  </defs>
  <g
     transform="translate(-384.57,-499.8)"
     id="g29">
    <path
       fill="url(#a)"
       d="m 396.57,503.8 c -2,0 -4,2 -4,4 v 28 c 0,4.432 0.004,8 0.01,8 h 31.98 c 0.006,0 0.01,-3.568 0.01,-8 v -20 l -12,-12 z"
       id="path19"
       sodipodi:nodetypes="ccssssccc" />
    <path
       opacity="0.2"
       fill="url(#c)"
       fill-rule="evenodd"
       d="m 32,16 v 1 H 16 l 2,2 h -2 l 4,4 H 16 L 17.334,24.334 16,25 l 4,4 h -4 l 2,2 h -2 l 13,13 h 11 c 0.006,0 0,-3.568 0,-8 V 24 Z"
       transform="translate(384.57,499.8)"
       id="path21"
       sodipodi:nodetypes="ccccccccccccccsscc" />
    <rect
       width="32"
       x="392.57001"
       y="542.79999"
       fill="#2e3132"
       height="1"
       fill-opacity="0.294"
       id="rect23" />
    <path
       fill="#2584b7"
       d="m 424.57,513.79 c 0.006,-0.009 0,-5.99 0,-5.99 0,-2 -2,-4 -4,-4 h -5.99 v 0.01 z"
       id="path25"
       sodipodi:nodetypes="cccccc" />
    <path
       fill="url(#b)"
       d="M 4,4 V 5 H 20 V 4 Z M 4,6 V 7 H 17 V 6 Z m 0,4 v 1 h 16 v -1 z m 0,2 v 1 h 2 v -1 z m 0,4 v 1 h 16 v -1 z m 0,2 v 1 h 13 v -1 z m 14,1 v 1 h 2 v -1 z"
       transform="translate(396.57,511.8)"
       id="path27" />
  </g>
</svg>
